<?xml version="1.0" encoding="UTF-8" standalone="no"?>
<!-- Creator: CorelDRAW -->

<svg
   xmlns:dc="http://purl.org/dc/elements/1.1/"
   xmlns:cc="http://creativecommons.org/ns#"
   xmlns:rdf="http://www.w3.org/1999/02/22-rdf-syntax-ns#"
   xmlns:svg="http://www.w3.org/2000/svg"
   xmlns="http://www.w3.org/2000/svg"
   xmlns:sodipodi="http://sodipodi.sourceforge.net/DTD/sodipodi-0.dtd"
   xmlns:inkscape="http://www.inkscape.org/namespaces/inkscape"
   xml:space="preserve"
   width="67.045303mm"
   height="28.9086mm"
   style="clip-rule:evenodd;fill-rule:evenodd;image-rendering:optimizeQuality;shape-rendering:geometricPrecision;text-rendering:geometricPrecision"
   viewBox="0 0 67.045303 28.9086"
   id="svg2"
   version="1.1"
   inkscape:version="0.91 r13725"
   sodipodi:docname="Verified by Visa logo.svg"><metadata
     id="metadata42"><rdf:RDF><cc:Work
         rdf:about=""><dc:format>image/svg+xml</dc:format><dc:type
           rdf:resource="http://purl.org/dc/dcmitype/StillImage" /><dc:title></dc:title></cc:Work></rdf:RDF></metadata><sodipodi:namedview
     pagecolor="#ffffff"
     bordercolor="#666666"
     borderopacity="1"
     objecttolerance="10"
     gridtolerance="10"
     guidetolerance="10"
     inkscape:pageopacity="0"
     inkscape:pageshadow="2"
     inkscape:window-width="1366"
     inkscape:window-height="705"
     id="namedview40"
     showgrid="false"
     fit-margin-top="0"
     fit-margin-left="0"
     fit-margin-right="0"
     fit-margin-bottom="0"
     inkscape:zoom="0.22425739"
     inkscape:cx="371.22803"
     inkscape:cy="525.44657"
     inkscape:window-x="-8"
     inkscape:window-y="-8"
     inkscape:window-maximized="1"
     inkscape:current-layer="svg2" /><defs
     id="defs4"><style
       type="text/css"
       id="style6"><![CDATA[
    .fil0 {fill:#0033AB}
    .fil1 {fill:#FA9E0D}
   ]]></style></defs><g
     id="Layer_x0020_1"
     transform="translate(-0.2312,-267.8841)"><metadata
       id="CorelCorpID_0Corel-Layer" /><path
       class="fil0"
       d="m 27.3455,283.313 -3.3604,9.0621 -0.3582,-1.8415 c -0.8369,-2.2576 -2.6487,-4.6261 -4.7588,-5.5862 l 3.0745,11.6361 3.6338,-0.002 5.404,-13.2689 -3.6349,0 z"
       id="path10"
       inkscape:connector-curvature="0"
       style="fill:#0033ab" /><polygon
       class="fil0"
       points="33.6577,296.596 30.2255,296.596 32.3739,283.3 35.807,283.3 "
       id="polygon12"
       style="fill:#0033ab" /><path
       class="fil0"
       d="m 46.1119,283.628 c -0.6783,-0.2684 -1.7488,-0.5599 -3.0765,-0.5599 -3.3961,0 -5.7822,1.8053 -5.8029,4.3874 -0.022,1.9123 1.706,2.9792 3.0048,3.6145 1.3405,0.6501 1.7884,1.0673 1.7843,1.6492 -0.0132,0.8909 -1.0725,1.2968 -2.0571,1.2968 -1.3725,0 -2.1036,-0.2002 -3.2287,-0.695 l -0.4459,-0.2118 -0.4804,2.9755 c 0.8033,0.3704 2.2857,0.6914 3.827,0.708 3.6043,0 5.949,-1.7846 5.9769,-4.5406 0.0145,-1.5169 -0.9026,-2.6652 -2.8853,-3.6133 -1.1968,-0.6159 -1.9368,-1.0246 -1.9258,-1.6495 0.0011,-0.5515 0.6208,-1.143 1.9672,-1.143 1.1241,-0.0187 1.9328,0.2394 2.569,0.5112 l 0.3063,0.1526 0.4671,-2.8821 z"
       id="path14"
       inkscape:connector-curvature="0"
       style="fill:#0033ab" /><path
       class="fil0"
       d="m 54.9169,283.314 -2.6524,0 c -0.8223,0 -1.4383,0.2343 -1.8014,1.1035 l -5.0963,12.1833 3.6056,0 c 0,0 0.5898,-1.6396 0.7231,-1.9992 0.3931,0 3.8954,0.008 4.3953,0.008 0.1061,0.4634 0.4178,1.991 0.4178,1.991 l 3.1882,0 -2.7799,-13.2868 z m -4.2337,8.568 c 0.2849,-0.7631 1.3676,-3.7166 1.3676,-3.7166 -0.0209,0.0362 0.2816,-0.7689 0.4566,-1.2668 l 0.2288,1.1462 c 0,0 0.6593,3.173 0.7971,3.8372 -0.5345,0 -2.1807,0 -2.8501,0 z"
       id="path16"
       inkscape:connector-curvature="0"
       style="fill:#0033ab" /><path
       class="fil1"
       d="m 20.868,283.306 -5.5366,0 -0.0324,0.2287 c 4.305,1.101 7.1455,3.8048 8.3279,7.0022 l -1.2035,-6.1109 c -0.2067,-0.8406 -0.8092,-1.0904 -1.5554,-1.12 z"
       id="path18"
       inkscape:connector-curvature="0"
       style="fill:#fa9e0d" /><polygon
       class="fil0"
       points="2.6508,268.305 4.3786,277.213 8.7799,268.423 11.1039,268.423 4.9458,280.093 2.7564,280.093 0.2312,268.709 "
       id="polygon20"
       style="fill:#0033ab" /><path
       class="fil0"
       d="m 16.3308,276.372 -5.2207,0 c -0.1428,1.583 0.5929,2.2735 1.8393,2.2735 1.0442,0 1.9627,-0.3875 2.9513,-1.0105 l -0.008,1.5828 c -0.969,0.6065 -2.0897,0.9938 -3.4033,0.9938 -2.2734,0 -3.7747,-1.2968 -3.3238,-4.2272 0.4069,-2.644 2.2363,-4.2435 4.3581,-4.2435 2.442,0 3.254,1.8356 2.8991,4.1427 -0.0259,0.1683 -0.0739,0.3705 -0.092,0.4884 z m -3.0725,-3.2334 c -0.8086,0 -1.5638,0.6397 -1.9201,1.9703 l 3.2331,0 c 0.0599,-1.2631 -0.3364,-1.9703 -1.313,-1.9703 z"
       id="path22"
       inkscape:connector-curvature="0"
       style="fill:#0033ab" /><path
       class="fil0"
       d="m 19.7337,275.378 -0.7179,4.6648 -2.021,0 1.252,-8.1342 1.7177,0 0.0012,1.6337 c 0.6842,-0.9432 1.6142,-1.7345 2.8877,-1.8018 l 0.0115,2.0038 c -1.2759,0.0844 -2.4238,0.7579 -3.1312,1.6337 z"
       id="path24"
       inkscape:connector-curvature="0"
       style="fill:#0033ab" /><path
       class="fil0"
       d="m 22.8384,280.043 1.2519,-8.1342 2.0209,0 -1.2519,8.1342 -2.0209,0 z m 2.4893,-9.4983 c -0.6736,0 -1.1399,-0.4714 -1.0362,-1.145 0.1063,-0.6905 0.7202,-1.1789 1.3938,-1.1789 0.657,0 1.1206,0.4884 1.0144,1.1789 -0.1037,0.6736 -0.715,1.145 -1.372,1.145 z"
       id="path26"
       inkscape:connector-curvature="0"
       style="fill:#0033ab" /><path
       class="fil0"
       d="m 31.7078,269.686 c -0.6907,0 -1.1076,0.303 -1.2192,1.0273 l -0.1839,1.1955 1.5493,0 -0.0015,1.6504 -1.8019,0 -0.9979,6.4838 -2.004,0 0.9981,-6.4838 -1.179,0 0.2539,-1.6504 1.1789,0 0.2152,-1.3977 c 0.2773,-1.8019 1.5261,-2.4754 3.1932,-2.4754 0.3538,0 0.6181,0.0337 0.8151,0.0673 l 0.0154,1.6503 c -0.1971,-0.0336 -0.4951,-0.0673 -0.8317,-0.0673 z"
       id="path28"
       inkscape:connector-curvature="0"
       style="fill:#0033ab" /><path
       class="fil0"
       d="m 31.7299,280.043 1.2519,-8.1342 2.0209,0 -1.252,8.1342 -2.0208,0 z m 2.4892,-9.4983 c -0.6735,0 -1.1398,-0.4714 -1.0361,-1.145 0.1063,-0.6905 0.7202,-1.1789 1.3936,-1.1789 0.6571,0 1.1208,0.4884 1.0147,1.1789 -0.1037,0.6736 -0.7152,1.145 -1.3722,1.145 z"
       id="path30"
       inkscape:connector-curvature="0"
       style="fill:#0033ab" /><path
       class="fil0"
       d="m 42.8377,276.372 -5.2207,0 c -0.1426,1.583 0.5929,2.2735 1.8393,2.2735 1.0442,0 1.9627,-0.3875 2.9514,-1.0105 l -0.0083,1.5828 c -0.9689,0.6065 -2.0897,0.9938 -3.4032,0.9938 -2.2735,0 -3.7745,-1.2968 -3.3236,-4.2272 0.4069,-2.644 2.2362,-4.2435 4.358,-4.2435 2.4419,0 3.2543,1.8356 2.8992,4.1427 -0.026,0.1683 -0.0742,0.3705 -0.0921,0.4884 z m -3.0727,-3.2334 c -0.8085,0 -1.5638,0.6397 -1.9199,1.9703 l 3.2332,0 c 0.0596,-1.2631 -0.3366,-1.9703 -1.3133,-1.9703 z"
       id="path32"
       inkscape:connector-curvature="0"
       style="fill:#0033ab" /><path
       class="fil0"
       d="m 48.8236,280.043 0.0051,-1.1284 c -0.679,0.6905 -1.5638,1.2968 -2.692,1.2968 -1.7012,0 -2.8704,-1.263 -2.4481,-4.0083 0.4665,-3.031 2.341,-4.3784 4.2272,-4.3784 0.7748,0 1.3773,0.1348 1.8396,0.303 l 0.604,-3.924 2.0701,-0.3196 -1.8713,12.1589 -1.7346,0 z m 0.6752,-6.2479 c -0.4688,-0.2359 -0.8382,-0.3537 -1.5286,-0.3537 -1.0612,-10e-5 -1.9678,0.8588 -2.2424,2.6441 -0.2435,1.5829 0.3159,2.3238 1.2085,2.3238 0.7412,0 1.3808,-0.4375 2.0233,-1.1114 l 0.5392,-3.5028 z"
       id="path34"
       inkscape:connector-curvature="0"
       style="fill:#0033ab" /><path
       class="fil0"
       d="m 56.749,280.119 c -0.9567,0 -1.7366,-0.1534 -2.4625,-0.4083 l 1.3291,-8.6362 1.5679,-0.2423 -0.575,3.7375 c 0.4581,-0.4082 1.0948,-0.8164 1.8731,-0.8164 1.3011,0 2.1724,0.9698 1.8544,3.0361 -0.3493,2.2705 -1.7501,3.3296 -3.587,3.3296 z m 1.129,-5.0136 c -0.5102,0 -1.0226,0.3445 -1.4759,0.804 l -0.43,2.7934 c 0.3016,0.1147 0.5102,0.1658 0.944,0.1658 0.9694,0 1.6467,-0.5867 1.8627,-1.9899 0.1827,-1.1863 -0.2118,-1.7733 -0.9008,-1.7733 z"
       id="path36"
       inkscape:connector-curvature="0"
       style="fill:#0033ab" /><path
       class="fil0"
       d="m 63.9423,280.374 c -0.7821,1.5179 -1.5561,1.9899 -2.7427,1.9899 -0.2679,0 -0.4167,-0.0255 -0.5511,-0.0638 l -0.01,-1.2628 c 0.1964,0.051 0.4072,0.0893 0.7007,0.0893 0.4465,0 0.8351,-0.204 1.0951,-0.6504 l 0.2031,-0.4083 -1.2978,-6.0721 1.6261,-0.204 0.7533,4.388 2.0393,-4.2988 1.5182,0 -3.3342,6.493 z"
       id="path38"
       inkscape:connector-curvature="0"
       style="fill:#0033ab" /></g></svg>